<?xml version="1.0" encoding="UTF-8"?>
<svg version="1.1" xmlns="http://www.w3.org/2000/svg" width="1024" height="1024">
<path d="M0 0 C337.92 0 675.84 0 1024 0 C1024 337.92 1024 675.84 1024 1024 C686.08 1024 348.16 1024 0 1024 C0 686.08 0 348.16 0 0 Z " fill="#FAFAFA" transform="translate(0,0)"/>
<path d="M0 0 C0.8979126 0.47904785 0.8979126 0.47904785 1.81396484 0.96777344 C11.08175454 5.94393743 19.59732414 11.69504024 28 18 C28.56154785 18.41588379 29.1230957 18.83176758 29.70166016 19.26025391 C54.02052016 37.35034331 72.26122913 59.54181572 89.25 84.375 C89.82923218 85.21794113 89.82923218 85.21794113 90.42016602 86.07791138 C91.51974861 87.68115652 92.61160538 89.28969209 93.703125 90.8984375 C94.33895508 91.83349121 94.97478516 92.76854492 95.62988281 93.73193359 C97 96 97 96 97 98 C66.4386929 114.49176774 66.4386929 114.49176774 55.08740234 119.98730469 C53.52294748 120.74629402 51.96121667 121.51090264 50.40087891 122.27832031 C47.56306606 123.67338577 44.71979974 125.05674505 41.875 126.4375 C40.98498291 126.87553955 40.09496582 127.3135791 39.17797852 127.76489258 C34.77910456 129.87982454 30.93190013 131.55532048 26 132 C25.19949219 130.71029297 25.19949219 130.71029297 24.3828125 129.39453125 C1.60563921 93.08985076 -30.42301195 65.45314546 -72.84765625 55.31982422 C-111.65907669 46.81186984 -151.635817 52.57840606 -185.79296875 72.9375 C-194.90736149 78.79913139 -203.14500657 85.55337014 -211 93 C-211.94617188 93.88171875 -212.89234375 94.7634375 -213.8671875 95.671875 C-246.65060691 126.84106093 -262.34392841 171.71964204 -271 215 C-223.48 215 -175.96 215 -127 215 C-127 199.16 -127 183.32 -127 167 C-123.25168415 168.49932634 -121.08918475 169.46498229 -118.0234375 171.765625 C-117.27989014 172.31895508 -116.53634277 172.87228516 -115.77026367 173.44238281 C-114.97982666 174.03889648 -114.18938965 174.63541016 -113.375 175.25 C-111.67065688 176.52094593 -109.96622731 177.79177596 -108.26171875 179.0625 C-107.3907959 179.71476563 -106.51987305 180.36703125 -105.62255859 181.0390625 C-101.49131674 184.12807149 -97.34024617 187.18999291 -93.1875 190.25 C-92.3941626 190.83539551 -91.6008252 191.42079102 -90.78344727 192.02392578 C-85.60075012 195.84173671 -80.37796684 199.59741706 -75.12670898 203.32006836 C-70.78019496 206.41356733 -66.50846427 209.59915334 -62.25 212.8125 C-56.61007858 217.06806465 -50.92328447 221.24955606 -45.1875 225.375 C-38.73514856 230.02145164 -32.2916881 234.67937122 -25.875 239.375 C-24.72100708 240.21297119 -24.72100708 240.21297119 -23.54370117 241.06787109 C-18.46002074 244.79845329 -13.67988626 248.77459506 -9 253 C-10.36015689 256.18492394 -11.7129384 257.82581895 -14.53515625 259.8125 C-15.25316406 260.32425781 -15.97117187 260.83601563 -16.7109375 261.36328125 C-17.48695313 261.90339844 -18.26296875 262.44351562 -19.0625 263 C-19.86816406 263.57105469 -20.67382812 264.14210938 -21.50390625 264.73046875 C-23.99698869 266.49510366 -26.49790012 268.2481825 -29 270 C-30.44713969 271.0200888 -31.89378019 272.04088627 -33.33984375 273.0625 C-35.42733367 274.53709956 -37.5153927 276.01082146 -39.60620117 277.48071289 C-44.73037423 281.08621912 -49.80734169 284.75313227 -54.875 288.4375 C-61.02795157 292.90994794 -67.25990781 297.24145713 -73.5625 301.5 C-80.46422359 306.17096283 -87.12640094 311.07143537 -93.70922852 316.17993164 C-123.20462563 339 -123.20462563 339 -127 339 C-127.33 323.49 -127.66 307.98 -128 292 C-175.19 292 -222.38 292 -271 292 C-268.69044582 307.3438902 -268.69044582 307.3438902 -265.3125 322.375 C-265.0561377 323.33212891 -264.79977539 324.28925781 -264.53564453 325.27539062 C-252.21555913 369.80652619 -226.2863292 409.75618198 -185.91992188 433.20849609 C-148.99612042 453.82699227 -103.24589636 455.89119632 -63.01049805 444.98022461 C-40.83667972 438.53056103 -22.45334037 427.06159417 -6 411 C-5.10023438 410.17371094 -4.20046875 409.34742188 -3.2734375 408.49609375 C8.93820751 396.97069392 18.1472763 382.75647778 26 368 C31.6155042 369.62710925 36.56755639 372.2192301 41.7265625 374.91015625 C43.66665542 375.9108291 45.60675999 376.91147937 47.546875 377.91210938 C50.56361994 379.4746298 53.57946779 381.03886173 56.59472656 382.60424805 C69.8910398 389.49826518 83.26927055 396.01391519 97 402 C95.843033 405.71179734 94.5909326 409.02312809 92.6015625 412.36328125 C92.128396 413.15919678 91.65522949 413.9551123 91.16772461 414.77514648 C90.40407593 416.03113647 90.40407593 416.03113647 89.625 417.3125 C89.09334229 418.19043213 88.56168457 419.06836426 88.01391602 419.97290039 C72.27237431 445.66500592 52.70694983 469.43858419 28 487 C27.41718262 487.41652832 26.83436523 487.83305664 26.23388672 488.26220703 C-24.43239892 524.08726986 -86.4122277 537.27162195 -147.44140625 527.19140625 C-149.62901844 526.80213669 -151.81531236 526.40536131 -154 526 C-154.98597168 525.81808105 -155.97194336 525.63616211 -156.98779297 525.44873047 C-198.75020788 517.44802129 -234.87114211 498.15137583 -268 472 C-272.8850014 475.13752122 -277.62681901 478.43580202 -282.28491211 481.89892578 C-332.17065495 518.96275884 -393.21556919 536.60638065 -455.10546875 527.90625 C-511.76074029 519.3753248 -564.88678769 491.04575269 -599.67382812 444.76171875 C-600.89966458 443.13328799 -602.14434233 441.5190864 -603.390625 439.90625 C-609.25935903 432.05536076 -614.22442278 423.72563097 -619.125 415.25 C-619.46704468 414.66021362 -619.80908936 414.07042725 -620.16149902 413.46276855 C-626 403.36337866 -626 403.36337866 -626 401 C-624.89269531 400.51273438 -623.78539062 400.02546875 -622.64453125 399.5234375 C-612.10739374 394.85066174 -601.68307035 389.96706965 -591.3125 384.9375 C-590.68969147 384.63547668 -590.06688293 384.33345337 -589.42520142 384.02227783 C-587.5711842 383.12301513 -585.71722133 382.22364048 -583.86328125 381.32421875 C-578.25561721 378.60392807 -572.63824761 375.90631726 -567 373.25 C-566.34298096 372.93925537 -565.68596191 372.62851074 -565.0090332 372.30834961 C-561.71181824 370.76028045 -558.39792675 369.31283533 -555 368 C-554.29037109 369.30710937 -554.29037109 369.30710937 -553.56640625 370.640625 C-534.47315239 405.25907785 -504.76698444 432.22922326 -466.625 443.75 C-463.76246546 444.55496646 -460.8883776 445.29381953 -458 446 C-457.33935547 446.16516113 -456.67871094 446.33032227 -455.99804688 446.50048828 C-421.12798172 454.80574764 -384.4583616 448.03732452 -353.86328125 430.16796875 C-344.14740288 424.00636364 -327.30777882 413.17525231 -323 402 C-324.13003302 397.99240612 -325.70443349 394.35974421 -327.57421875 390.6484375 C-334.01825751 377.66680239 -339.68483853 364.8380726 -344 351 C-344.34901367 349.90316895 -344.34901367 349.90316895 -344.70507812 348.78417969 C-346.25457765 343.88626024 -347.67681596 338.96370282 -349 334 C-349.1762793 333.34515625 -349.35255859 332.6903125 -349.53417969 332.015625 C-354.90694952 311.53257002 -357.63258269 289.1539458 -358 268 C-358.02046387 266.9569873 -358.04092773 265.91397461 -358.06201172 264.83935547 C-358.3307093 248.78189911 -358.05509855 232.93761437 -356 217 C-355.8146167 215.55608887 -355.8146167 215.55608887 -355.62548828 214.08300781 C-351.06070462 179.94395911 -341.14619681 146.94330456 -326 116 C-325.59201172 115.15953125 -325.18402344 114.3190625 -324.76367188 113.453125 C-312.92604379 89.30797825 -297.63928888 67.37370191 -279 48 C-278.10039551 47.05954834 -278.10039551 47.05954834 -277.18261719 46.10009766 C-268.85483967 37.43912522 -260.37456158 29.36563089 -250.68701172 22.24267578 C-249.02898451 21.02135039 -247.39123502 19.77622084 -245.75390625 18.52734375 C-216.5152685 -3.42336363 -181.86723453 -16.8949388 -146 -23 C-145.05785645 -23.16371094 -144.11571289 -23.32742187 -143.14501953 -23.49609375 C-94.45313606 -31.6324209 -43.43020971 -23.47891497 0 0 Z " fill="#000000" transform="translate(775,247)"/>
<path d="M0 0 C0.94568848 0.16628906 1.89137695 0.33257812 2.86572266 0.50390625 C37.92275256 6.73626712 70.73673848 20.1905541 99 42 C99.95261719 42.71414063 100.90523438 43.42828125 101.88671875 44.1640625 C102.81097656 44.87304688 103.73523438 45.58203125 104.6875 46.3125 C105.93080078 47.26576172 105.93080078 47.26576172 107.19921875 48.23828125 C107.79347656 48.81964844 108.38773437 49.40101563 109 50 C109 53 109 53 107.49609375 54.76171875 C106.47708984 55.71498047 106.47708984 55.71498047 105.4375 56.6875 C98.77562829 62.95978857 93.04233199 70.03656982 87.4375 77.25 C86.84469238 78.0121582 86.25188477 78.77431641 85.64111328 79.55957031 C77.30934635 90.37486577 69.52954993 101.61385132 62 113 C57.71153094 109.83755355 53.52626156 106.60507457 49.4375 103.1875 C23.38200329 82.34310263 -9.99388241 73.75870918 -42.96777344 74.93066406 C-44.70954738 74.99009028 -46.45257197 75.01065456 -48.1953125 75.0234375 C-85.6530875 76.3219737 -122.93850364 97.36553759 -148.125 124.25 C-156.56676421 133.86190975 -163.98850863 144.31626314 -171 155 C-187.09004653 148.40372284 -203.02574424 141.50553114 -218.89306641 134.39111328 C-224.18838236 132.02016324 -229.49390114 129.67222638 -234.79833984 127.32177734 C-239.78030508 125.10984746 -239.78030508 125.10984746 -242 124 C-241.41719199 120.07777661 -240.24027291 117.3202825 -238.19140625 113.9375 C-237.61438965 112.98222412 -237.03737305 112.02694824 -236.44287109 111.04272461 C-235.82234863 110.03862549 -235.20182617 109.03452637 -234.5625 108 C-233.92650879 106.96560791 -233.29051758 105.93121582 -232.63525391 104.86547852 C-227.84814492 97.1716949 -222.82109715 89.95602804 -217 83 C-216.53916016 82.44054687 -216.07832031 81.88109375 -215.60351562 81.3046875 C-205.40823035 68.94511603 -194.56485354 57.96460165 -182 48 C-181.14019531 47.27296875 -180.28039062 46.5459375 -179.39453125 45.796875 C-148.80328791 19.9502115 -111.14428501 5.69276085 -72 -1 C-70.72253906 -1.226875 -69.44507813 -1.45375 -68.12890625 -1.6875 C-45.88284275 -4.96634662 -22.03300367 -4.11120876 0 0 Z " fill="#000000" transform="translate(391,224)"/>
<path d="M0 0 C1.98 0.99 1.98 0.99 4 2 C4.93580311 4.87939419 5.37245106 6.25509788 4 9 C3.34 9 2.68 9 2 9 C1.34 6.03 0.68 3.06 0 0 Z " fill="#F2F2F2" transform="translate(513,581)"/>
<path d="M0 0 C-0.99 0.33 -1.98 0.66 -3 1 C-4.21869929 3.50447516 -4.21869929 3.50447516 -5 6 C-5.33 6 -5.66 6 -6 6 C-6 4.02 -6 2.04 -6 0 C-2.25 -1.125 -2.25 -1.125 0 0 Z " fill="#F0F2F1" transform="translate(734,769)"/>
</svg>
